<mxfile host="app.diagrams.net" modified="2023-10-11T07:18:05.884Z" agent="Mozilla/5.0 (Windows NT 10.0; Win64; x64) AppleWebKit/537.36 (KHTML, like Gecko) Chrome/117.0.0.0 Safari/537.36" etag="iOeYF_Jnt0nVPamKgo4S" version="22.0.4" type="github">
  <diagram name="第 1 页" id="mf9a_bjuGKoEFxids4QC">
    <mxGraphModel dx="1900" dy="1231" grid="0" gridSize="10" guides="1" tooltips="1" connect="1" arrows="1" fold="1" page="0" pageScale="1" pageWidth="827" pageHeight="1169" math="0" shadow="0">
      <root>
        <mxCell id="0" />
        <mxCell id="1" parent="0" />
        <mxCell id="QAW1ODBQ1N-8g3qy7e2c-5" value="" style="edgeStyle=orthogonalEdgeStyle;rounded=0;orthogonalLoop=1;jettySize=auto;html=1;entryX=0;entryY=0.5;entryDx=0;entryDy=0;" edge="1" parent="1" source="QAW1ODBQ1N-8g3qy7e2c-1" target="QAW1ODBQ1N-8g3qy7e2c-4">
          <mxGeometry relative="1" as="geometry" />
        </mxCell>
        <mxCell id="QAW1ODBQ1N-8g3qy7e2c-7" value="" style="edgeStyle=orthogonalEdgeStyle;rounded=0;orthogonalLoop=1;jettySize=auto;html=1;entryX=0;entryY=0.5;entryDx=0;entryDy=0;" edge="1" parent="1" source="QAW1ODBQ1N-8g3qy7e2c-1" target="QAW1ODBQ1N-8g3qy7e2c-6">
          <mxGeometry relative="1" as="geometry" />
        </mxCell>
        <mxCell id="QAW1ODBQ1N-8g3qy7e2c-11" style="edgeStyle=orthogonalEdgeStyle;rounded=0;orthogonalLoop=1;jettySize=auto;html=1;" edge="1" parent="1" source="QAW1ODBQ1N-8g3qy7e2c-1" target="QAW1ODBQ1N-8g3qy7e2c-8">
          <mxGeometry relative="1" as="geometry" />
        </mxCell>
        <mxCell id="QAW1ODBQ1N-8g3qy7e2c-12" style="edgeStyle=orthogonalEdgeStyle;rounded=0;orthogonalLoop=1;jettySize=auto;html=1;entryX=0;entryY=0.5;entryDx=0;entryDy=0;" edge="1" parent="1" source="QAW1ODBQ1N-8g3qy7e2c-1" target="QAW1ODBQ1N-8g3qy7e2c-9">
          <mxGeometry relative="1" as="geometry" />
        </mxCell>
        <mxCell id="QAW1ODBQ1N-8g3qy7e2c-13" style="edgeStyle=orthogonalEdgeStyle;rounded=0;orthogonalLoop=1;jettySize=auto;html=1;entryX=0;entryY=0.5;entryDx=0;entryDy=0;" edge="1" parent="1" source="QAW1ODBQ1N-8g3qy7e2c-1" target="QAW1ODBQ1N-8g3qy7e2c-10">
          <mxGeometry relative="1" as="geometry" />
        </mxCell>
        <mxCell id="QAW1ODBQ1N-8g3qy7e2c-1" value="端口扫描" style="rounded=0;whiteSpace=wrap;html=1;" vertex="1" parent="1">
          <mxGeometry x="-45" y="232" width="94" height="43" as="geometry" />
        </mxCell>
        <mxCell id="QAW1ODBQ1N-8g3qy7e2c-4" value="22" style="whiteSpace=wrap;html=1;rounded=0;" vertex="1" parent="1">
          <mxGeometry x="119" y="-36" width="120" height="60" as="geometry" />
        </mxCell>
        <mxCell id="QAW1ODBQ1N-8g3qy7e2c-6" value="80" style="whiteSpace=wrap;html=1;rounded=0;" vertex="1" parent="1">
          <mxGeometry x="119" y="91" width="120" height="60" as="geometry" />
        </mxCell>
        <mxCell id="QAW1ODBQ1N-8g3qy7e2c-15" value="" style="edgeStyle=orthogonalEdgeStyle;rounded=0;orthogonalLoop=1;jettySize=auto;html=1;" edge="1" parent="1" source="QAW1ODBQ1N-8g3qy7e2c-8" target="QAW1ODBQ1N-8g3qy7e2c-14">
          <mxGeometry relative="1" as="geometry" />
        </mxCell>
        <mxCell id="QAW1ODBQ1N-8g3qy7e2c-8" value="139/445" style="whiteSpace=wrap;html=1;rounded=0;" vertex="1" parent="1">
          <mxGeometry x="119" y="223.5" width="120" height="60" as="geometry" />
        </mxCell>
        <mxCell id="QAW1ODBQ1N-8g3qy7e2c-9" value="8009" style="whiteSpace=wrap;html=1;rounded=0;" vertex="1" parent="1">
          <mxGeometry x="119" y="318" width="120" height="60" as="geometry" />
        </mxCell>
        <mxCell id="QAW1ODBQ1N-8g3qy7e2c-10" value="8080" style="whiteSpace=wrap;html=1;rounded=0;" vertex="1" parent="1">
          <mxGeometry x="119" y="412" width="120" height="60" as="geometry" />
        </mxCell>
        <mxCell id="QAW1ODBQ1N-8g3qy7e2c-18" style="edgeStyle=orthogonalEdgeStyle;rounded=0;orthogonalLoop=1;jettySize=auto;html=1;entryX=0.5;entryY=1;entryDx=0;entryDy=0;" edge="1" parent="1" source="QAW1ODBQ1N-8g3qy7e2c-14" target="QAW1ODBQ1N-8g3qy7e2c-16">
          <mxGeometry relative="1" as="geometry" />
        </mxCell>
        <mxCell id="QAW1ODBQ1N-8g3qy7e2c-14" value="发现一个可访问的共享目录, 从中获取到两个用户名" style="whiteSpace=wrap;html=1;rounded=0;align=left;verticalAlign=top;" vertex="1" parent="1">
          <mxGeometry x="319" y="223.5" width="120" height="60" as="geometry" />
        </mxCell>
        <mxCell id="QAW1ODBQ1N-8g3qy7e2c-20" value="" style="edgeStyle=orthogonalEdgeStyle;rounded=0;orthogonalLoop=1;jettySize=auto;html=1;" edge="1" parent="1" source="QAW1ODBQ1N-8g3qy7e2c-16" target="QAW1ODBQ1N-8g3qy7e2c-19">
          <mxGeometry relative="1" as="geometry" />
        </mxCell>
        <mxCell id="QAW1ODBQ1N-8g3qy7e2c-16" value="在一个页面中提及, 一个用户的 SSH 为弱密码" style="whiteSpace=wrap;html=1;rounded=0;" vertex="1" parent="1">
          <mxGeometry x="480" y="91" width="120" height="60" as="geometry" />
        </mxCell>
        <mxCell id="QAW1ODBQ1N-8g3qy7e2c-22" value="" style="edgeStyle=orthogonalEdgeStyle;rounded=0;orthogonalLoop=1;jettySize=auto;html=1;" edge="1" parent="1" source="QAW1ODBQ1N-8g3qy7e2c-19" target="QAW1ODBQ1N-8g3qy7e2c-21">
          <mxGeometry relative="1" as="geometry" />
        </mxCell>
        <mxCell id="QAW1ODBQ1N-8g3qy7e2c-19" value="进行暴力破解获取到用户密码" style="whiteSpace=wrap;html=1;rounded=0;" vertex="1" parent="1">
          <mxGeometry x="480" y="-49" width="120" height="60" as="geometry" />
        </mxCell>
        <mxCell id="QAW1ODBQ1N-8g3qy7e2c-24" value="" style="edgeStyle=orthogonalEdgeStyle;rounded=0;orthogonalLoop=1;jettySize=auto;html=1;" edge="1" parent="1" source="QAW1ODBQ1N-8g3qy7e2c-21" target="QAW1ODBQ1N-8g3qy7e2c-23">
          <mxGeometry relative="1" as="geometry" />
        </mxCell>
        <mxCell id="QAW1ODBQ1N-8g3qy7e2c-21" value="进行登陆, 随后发现另一个用户的 SSH 私钥可以进行读取下载到本地进行连接" style="whiteSpace=wrap;html=1;rounded=0;" vertex="1" parent="1">
          <mxGeometry x="680" y="-49" width="120" height="60" as="geometry" />
        </mxCell>
        <mxCell id="QAW1ODBQ1N-8g3qy7e2c-23" value="发现新获取的用户存在 SUDO 特权" style="whiteSpace=wrap;html=1;rounded=0;" vertex="1" parent="1">
          <mxGeometry x="880" y="-49" width="120" height="60" as="geometry" />
        </mxCell>
      </root>
    </mxGraphModel>
  </diagram>
</mxfile>
